# xmcd
#
# Track frame offsets:
#	225
#	12900
#	27626
#	38286
#	59896
#	75375
#	94575
#	117525
#	142129
#	170191
#	186042
#	213335
#	230270
#	247996
#	265250
#	275870
#
# Disc length: 3836 seconds
#
# Revision: 1
# Processed by: cddbd v1.5.1PL2 Copyright (c) Steve Scherf et al.
# Submitted via: audiograbber 1.83.01
#
DISCID=e80ef910
DTITLE=Various Artist - A Taste of the Blue Rose
DYEAR=1998
DGENRE=Blues
TTITLE0=O.C. Thomas - Two Trains Runnin'
TTITLE1=Mel Solomon - Further On Up the Road
TTITLE2=Lily Wilde - Be Baba Leba
TTITLE3=Bob Shoemaker - Alone Again Tonight
TTITLE4=Jan Celt - Humanoid Boogie
TTITLE5=Johnnie Ward - That's My Baby
TTITLE6=Norman Moody - Bad Luck Neighborhood
TTITLE7=Rich Halley - Lava Blues
TTITLE8=Mel Solomon - When My Heart Beats Like a Hammer
TTITLE9=Bob Shoemaker - All Your Love
TTITLE10=Jan Celt - Paulette
TTITLE11=Johnnie Ward - Back Talkin' Betty
TTITLE12=Chris Newman - Sorry for Myself
TTITLE13=Mel Solomon - Mother-in-law Blues
TTITLE14=Lily Wilde - Don't Shout at Me, Daddy
TTITLE15=Rich Halley - John G.
EXTD=Portland Blues by Various Artists\nFlying Heart Records\nwww.teleport.com/
EXTD=~flyheart
EXTT0=
EXTT1=
EXTT2=
EXTT3=
EXTT4=
EXTT5=
EXTT6=
EXTT7=
EXTT8=
EXTT9=
EXTT10=
EXTT11=
EXTT12=
EXTT13=
EXTT14=
EXTT15=
PLAYORDER=
